# xmcd
#
# Track frame offsets: 
#        150
#        18726
#        36996
#        54036
#        73143
#        91935
#        105732
#        120720
#        134874
#        147306
#        160425
#        179508
#        200409
#        217494
#        236238
#        254100
#        269829
#        294951
#
# Disc length: 4128 seconds
#
# Revision: 0
# Processed by: cddbd v1.5.2PL0 Copyright (c) Steve Scherf et al.
# Submitted via: ExactAudioCopyFreeDBPlugin 1.0
#
DISCID=32101e12
DTITLE=หลง ลงลาย - รวมสุดยอด 55 บทเพลง ตำนานรักสะท้านโลกา แผ่น 3
DYEAR=1900
DGENRE=
TTITLE0=ร้าง
TTITLE1=เกลียด
TTITLE2=เพื่อน
TTITLE3=แพงน้ำตา
TTITLE4=กล่อม
TTITLE5=สายเดี่ยวเปลี่ยวใจ
TTITLE6=ไม่หรอยไม่มา
TTITLE7=โอ๊ะเจ็บ
TTITLE8=ขี้เมา
TTITLE9=ห่วงใย
TTITLE10=เหงา
TTITLE11=รักอย่างแรง
TTITLE12=ผม
TTITLE13=เงา
TTITLE14=ผัวถัดไป
TTITLE15=ตะบะแตก
TTITLE16=คนลวง
TTITLE17=เพลงสุดท้าย
EXTD=
EXTT0=
EXTT1=
EXTT2=
EXTT3=
EXTT4=
EXTT5=
EXTT6=
EXTT7=
EXTT8=
EXTT9=
EXTT10=
EXTT11=
EXTT12=
EXTT13=
EXTT14=
EXTT15=
EXTT16=
EXTT17=
PLAYORDER=
